<svg width="111" height="130" viewBox="0 0 111 130" fill="none" xmlns="http://www.w3.org/2000/svg">
<g filter="url(#filter0_d_9_445)">
<path d="M76.3814 12L85 21.7999H67.7628L76.3814 12Z" fill="white"/>
<rect x="15" y="21.7999" width="82" height="88" rx="12" fill="white"/>
<mask id="path-3-inside-1_9_445" fill="white">
<path d="M31 29.7999H81V65.7999H31V29.7999Z"/>
</mask>
<path d="M81 65.2999H31V66.2999H81V65.2999Z" fill="black" fill-opacity="0.24" mask="url(#path-3-inside-1_9_445)"/>
<path opacity="0.87" d="M32.136 53.2999V42.0999H39.256V43.4759H33.832V46.9639H38.776V48.3079H33.832V51.9239H39.256V53.2999H32.136ZM44.8286 53.4919C44.0606 53.4919 43.3833 53.3106 42.7966 52.9479C42.21 52.5853 41.7513 52.0893 41.4206 51.4599C41.09 50.8306 40.9246 50.1159 40.9246 49.3159C40.9246 48.5159 41.09 47.8066 41.4206 47.1879C41.7513 46.5586 42.21 46.0679 42.7966 45.7159C43.394 45.3533 44.0766 45.1719 44.8446 45.1719C45.474 45.1719 46.0233 45.2946 46.4926 45.5399C46.9726 45.7853 47.346 46.1319 47.6126 46.5799V41.7799H49.3086V53.2999H47.7886L47.6126 52.0679C47.3566 52.4413 47.0046 52.7719 46.5566 53.0599C46.1086 53.3479 45.5326 53.4919 44.8286 53.4919ZM45.1326 52.0199C45.858 52.0199 46.45 51.7693 46.9086 51.2679C47.378 50.7666 47.6126 50.1213 47.6126 49.3319C47.6126 48.5319 47.378 47.8866 46.9086 47.3959C46.45 46.8946 45.858 46.6439 45.1326 46.6439C44.4073 46.6439 43.81 46.8946 43.3406 47.3959C42.8713 47.8866 42.6366 48.5319 42.6366 49.3319C42.6366 49.8546 42.7433 50.3186 42.9566 50.7239C43.17 51.1293 43.4633 51.4493 43.8366 51.6839C44.2206 51.9079 44.6526 52.0199 45.1326 52.0199ZM52.407 43.8599C52.087 43.8599 51.8203 43.7639 51.607 43.5719C51.4043 43.3693 51.303 43.1186 51.303 42.8199C51.303 42.5213 51.4043 42.2759 51.607 42.0839C51.8203 41.8813 52.087 41.7799 52.407 41.7799C52.727 41.7799 52.9883 41.8813 53.191 42.0839C53.4043 42.2759 53.511 42.5213 53.511 42.8199C53.511 43.1186 53.4043 43.3693 53.191 43.5719C52.9883 43.7639 52.727 43.8599 52.407 43.8599ZM51.559 53.2999V45.3639H53.255V53.2999H51.559ZM58.8219 53.2999C58.0432 53.2999 57.4245 53.1133 56.9659 52.7399C56.5072 52.3559 56.2779 51.6786 56.2779 50.7079V46.7879H54.9179V45.3639H56.2779L56.4859 43.3479H57.9739V45.3639H60.2139V46.7879H57.9739V50.7079C57.9739 51.1453 58.0645 51.4493 58.2459 51.6199C58.4379 51.7799 58.7632 51.8599 59.2219 51.8599H60.1339V53.2999H58.8219Z" fill="#00060D"/>
<path opacity="0.87" d="M32.9485 89.2999V78.0999H36.5805C37.8925 78.0999 38.9698 78.3293 39.8125 78.7879C40.6658 79.2466 41.2952 79.8973 41.7005 80.7399C42.1165 81.5719 42.3245 82.5639 42.3245 83.7159C42.3245 84.8573 42.1165 85.8493 41.7005 86.6919C41.2952 87.5239 40.6658 88.1693 39.8125 88.6279C38.9698 89.0759 37.8925 89.2999 36.5805 89.2999H32.9485ZM34.6445 87.8599H36.5165C37.5298 87.8599 38.3298 87.6946 38.9165 87.3639C39.5138 87.0333 39.9405 86.5586 40.1965 85.9399C40.4632 85.3213 40.5965 84.5799 40.5965 83.7159C40.5965 82.8519 40.4632 82.1053 40.1965 81.4759C39.9405 80.8466 39.5138 80.3666 38.9165 80.0359C38.3298 79.6946 37.5298 79.5239 36.5165 79.5239H34.6445V87.8599ZM47.8465 89.4919C47.0678 89.4919 46.3745 89.3213 45.7665 88.9799C45.1692 88.6279 44.6998 88.1426 44.3585 87.5239C44.0172 86.9053 43.8465 86.1853 43.8465 85.3639C43.8465 84.5319 44.0118 83.8013 44.3425 83.1719C44.6838 82.5426 45.1532 82.0519 45.7505 81.6999C46.3585 81.3479 47.0625 81.1719 47.8625 81.1719C48.6412 81.1719 49.3185 81.3479 49.8945 81.6999C50.4705 82.0413 50.9185 82.4999 51.2385 83.0759C51.5585 83.6519 51.7185 84.2866 51.7185 84.9799C51.7185 85.0866 51.7132 85.2039 51.7025 85.3319C51.7025 85.4493 51.6972 85.5826 51.6865 85.7319H45.5105C45.5638 86.4999 45.8145 87.0866 46.2625 87.4919C46.7212 87.8866 47.2492 88.0839 47.8465 88.0839C48.3265 88.0839 48.7265 87.9773 49.0465 87.7639C49.3772 87.5399 49.6225 87.2413 49.7825 86.8679H51.4785C51.2652 87.6146 50.8385 88.2386 50.1985 88.7399C49.5692 89.2413 48.7852 89.4919 47.8465 89.4919ZM47.8465 82.5639C47.2812 82.5639 46.7798 82.7346 46.3425 83.0759C45.9052 83.4066 45.6385 83.9079 45.5425 84.5799H50.0225C49.9905 83.9613 49.7718 83.4706 49.3665 83.1079C48.9612 82.7453 48.4545 82.5639 47.8465 82.5639ZM53.4783 89.2999V77.7799H55.1743V89.2999H53.4783ZM61.034 89.4919C60.2553 89.4919 59.562 89.3213 58.954 88.9799C58.3567 88.6279 57.8873 88.1426 57.546 87.5239C57.2047 86.9053 57.034 86.1853 57.034 85.3639C57.034 84.5319 57.1993 83.8013 57.53 83.1719C57.8713 82.5426 58.3407 82.0519 58.938 81.6999C59.546 81.3479 60.25 81.1719 61.05 81.1719C61.8287 81.1719 62.506 81.3479 63.082 81.6999C63.658 82.0413 64.106 82.4999 64.426 83.0759C64.746 83.6519 64.906 84.2866 64.906 84.9799C64.906 85.0866 64.9007 85.2039 64.89 85.3319C64.89 85.4493 64.8847 85.5826 64.874 85.7319H58.698C58.7513 86.4999 59.002 87.0866 59.45 87.4919C59.9087 87.8866 60.4367 88.0839 61.034 88.0839C61.514 88.0839 61.914 87.9773 62.234 87.7639C62.5647 87.5399 62.81 87.2413 62.97 86.8679H64.666C64.4527 87.6146 64.026 88.2386 63.386 88.7399C62.7567 89.2413 61.9727 89.4919 61.034 89.4919ZM61.034 82.5639C60.4687 82.5639 59.9673 82.7346 59.53 83.0759C59.0927 83.4066 58.826 83.9079 58.73 84.5799H63.21C63.178 83.9613 62.9593 83.4706 62.554 83.1079C62.1487 82.7453 61.642 82.5639 61.034 82.5639ZM69.7906 89.2999C69.012 89.2999 68.3933 89.1133 67.9346 88.7399C67.476 88.3559 67.2466 87.6786 67.2466 86.7079V82.7879H65.8866V81.3639H67.2466L67.4546 79.3479H68.9426V81.3639H71.1826V82.7879H68.9426V86.7079C68.9426 87.1453 69.0333 87.4493 69.2146 87.6199C69.4066 87.7799 69.732 87.8599 70.1906 87.8599H71.1026V89.2999H69.7906ZM76.4403 89.4919C75.6616 89.4919 74.9683 89.3213 74.3603 88.9799C73.7629 88.6279 73.2936 88.1426 72.9523 87.5239C72.6109 86.9053 72.4403 86.1853 72.4403 85.3639C72.4403 84.5319 72.6056 83.8013 72.9363 83.1719C73.2776 82.5426 73.7469 82.0519 74.3443 81.6999C74.9523 81.3479 75.6563 81.1719 76.4563 81.1719C77.2349 81.1719 77.9123 81.3479 78.4883 81.6999C79.0643 82.0413 79.5123 82.4999 79.8323 83.0759C80.1523 83.6519 80.3123 84.2866 80.3123 84.9799C80.3123 85.0866 80.3069 85.2039 80.2963 85.3319C80.2963 85.4493 80.2909 85.5826 80.2803 85.7319H74.1043C74.1576 86.4999 74.4083 87.0866 74.8563 87.4919C75.3149 87.8866 75.8429 88.0839 76.4403 88.0839C76.9203 88.0839 77.3203 87.9773 77.6403 87.7639C77.9709 87.5399 78.2163 87.2413 78.3763 86.8679H80.0723C79.8589 87.6146 79.4323 88.2386 78.7923 88.7399C78.1629 89.2413 77.3789 89.4919 76.4403 89.4919ZM76.4403 82.5639C75.8749 82.5639 75.3736 82.7346 74.9363 83.0759C74.4989 83.4066 74.2323 83.9079 74.1363 84.5799H78.6163C78.5843 83.9613 78.3656 83.4706 77.9603 83.1079C77.5549 82.7453 77.0483 82.5639 76.4403 82.5639Z" fill="#FF7D53"/>
</g>
<defs>
<filter id="filter0_d_9_445" x="0" y="0" width="114" height="129.8" filterUnits="userSpaceOnUse" color-interpolation-filters="sRGB">
<feFlood flood-opacity="0" result="BackgroundImageFix"/>
<feColorMatrix in="SourceAlpha" type="matrix" values="0 0 0 0 0 0 0 0 0 0 0 0 0 0 0 0 0 0 127 0" result="hardAlpha"/>
<feOffset dx="1" dy="4"/>
<feGaussianBlur stdDeviation="8"/>
<feComposite in2="hardAlpha" operator="out"/>
<feColorMatrix type="matrix" values="0 0 0 0 0 0 0 0 0 0 0 0 0 0 0 0 0 0 0.19 0"/>
<feBlend mode="normal" in2="BackgroundImageFix" result="effect1_dropShadow_9_445"/>
<feBlend mode="normal" in="SourceGraphic" in2="effect1_dropShadow_9_445" result="shape"/>
</filter>
</defs>
</svg>
